<?xml version="1.0" encoding="UTF-8"?>
<svg id="Layer_1" xmlns="http://www.w3.org/2000/svg" version="1.1" viewBox="0 0 2133.7 388">
  <!-- Generator: Adobe Illustrator 29.6.1, SVG Export Plug-In . SVG Version: 2.1.1 Build 9)  -->
  <defs>
    <style>
      .st0 {
        fill: #ec3207;
      }

      .st1 {
        fill: none;
        stroke: #ec3207;
        stroke-miterlimit: 13.3;
        stroke-width: 40px;
      }

      .st2 {
        fill: #999;
      }
    </style>
  </defs>
  <path class="st0" d="M765.5,329.6c-12.1,0-15.1-1.3-21.7-3-6.6-1.7-12.2-4.8-17-9.2-4.7-4.4-8.4-10.1-11.1-17.1-2.7-7-4-16-4-26.8V118.9h-68.9l19.3-45h49.6V26.5h52.6v47.4h332l33.2,45h-365.2v146c0,12,5.6,18,16.9,18s10.7-.5,19.2-.5l32.9,47.3"/>
  <path class="st0" d="M986.5,233.7c0-6.9-1.2-13.4-3.5-19.5-2.3-6.1-5.7-11.5-10-16.3-4.4-4.7-9.6-8.5-15.6-11.2-6-2.8-12.6-4.2-19.7-4.2s-14.4,1.3-20.2,4c-5.9,2.7-10.9,6.3-15,10.9-4.2,4.6-7.3,10-9.5,16.1-2.2,6.1-3.3,12.6-3.3,19.5v.7c0,6.9,1.2,13.4,3.5,19.5,2.3,6.1,5.6,11.5,10,16.3,4.4,4.7,9.5,8.5,15.4,11.2,5.9,2.8,12.5,4.2,19.9,4.2s14.4-1.3,20.2-4c5.9-2.6,10.9-6.3,15-10.9,4.2-4.6,7.3-10,9.5-16.1,2.2-6.1,3.3-12.6,3.3-19.5v-.7ZM1030.7,271.2c-5.1,11.6-12.1,21.9-21.1,30.6-9,8.8-19.6,15.7-31.8,20.8-12.2,5.1-25.6,7.6-40.1,7.6s-27.6-2.5-39.8-7.4c-12.2-5-22.8-11.8-31.6-20.4-8.9-8.6-15.9-18.8-20.9-30.4-5.1-11.6-7.6-24.2-7.6-37.5v-.7c0-13.4,2.5-25.9,7.6-37.5,5.1-11.6,12.1-21.8,21.1-30.6,9-8.8,19.6-15.7,31.8-20.8,12.2-5.1,25.6-7.6,40.1-7.6s27.6,2.5,39.8,7.4c12.2,5,22.8,11.8,31.7,20.4,8.9,8.6,15.9,18.8,20.9,30.4,5.1,11.6,7.6,24.2,7.6,37.5v.7c0,13.4-2.5,25.9-7.6,37.5"/>
  <path class="st0" d="M1218.5,233c0-7.7-1.2-14.7-3.6-21.1s-5.7-11.8-9.9-16.4c-4.2-4.5-8.9-8-14.4-10.4-5.4-2.4-11.2-3.7-17.5-3.7s-12.1,1.2-17.5,3.7c-5.4,2.4-10.1,5.9-14.2,10.4-4,4.5-7.3,10-9.7,16.4-2.4,6.4-3.6,13.4-3.6,21.1v.7c0,7.7,1.2,14.7,3.6,21.1,2.4,6.4,5.6,11.8,9.7,16.4,4,4.5,8.8,8,14.2,10.4,5.4,2.4,11.2,3.7,17.5,3.7s12-1.2,17.5-3.7c5.4-2.4,10.2-5.9,14.4-10.4,4.2-4.5,7.4-9.9,9.9-16.2,2.4-6.3,3.6-13.3,3.6-21.2v-.7ZM1264,274.7c-4.7,11.9-11,21.9-18.7,30.1-7.7,8.2-16.7,14.4-26.8,18.5-10.1,4.2-20.8,6.2-31.8,6.2s-25.7-2.7-34.8-8.2c-9.1-5.5-16.8-11.9-23-19.2v79.3h-52.6v-240.8h52.6v26.4c6.5-8.7,14.2-15.8,23.3-21.5,9.1-5.6,20.6-8.4,34.4-8.4s21.3,2.1,31.5,6.2c10.1,4.2,19.1,10.3,27,18.5,7.8,8.2,14.1,18.2,18.9,30.1,4.7,11.9,7.1,25.5,7.1,41v.7c0,15.5-2.4,29.1-7.1,41"/>
  <path class="st2" d="M1444.4,233c0-7.7-1.2-14.7-3.6-21.1s-5.7-11.8-9.7-16.4c-4-4.5-8.8-8-14.2-10.4-5.4-2.4-11.2-3.7-17.5-3.7s-12.1,1.2-17.5,3.7c-5.4,2.4-10.2,5.9-14.4,10.4-4.2,4.5-7.4,9.9-9.9,16.2-2.4,6.3-3.6,13.4-3.6,21.2v.7c0,7.7,1.2,14.7,3.6,21.1,2.4,6.4,5.7,11.8,9.9,16.4,4.2,4.5,8.9,8,14.4,10.4,5.4,2.4,11.2,3.7,17.5,3.7s12-1.2,17.5-3.7c5.4-2.4,10.1-5.9,14.2-10.4,4-4.5,7.3-10,9.7-16.4,2.4-6.4,3.6-13.4,3.6-21.1v-.7ZM1443.7,329.1v-29.4c-6.5,8.7-14.2,15.8-23.3,21.5-9.1,5.6-20.6,8.4-34.4,8.4s-21.3-2.1-31.5-6.2c-10.1-4.2-19.1-10.3-27-18.5-7.8-8.2-14.1-18.2-18.9-30.1-4.7-11.9-7.1-25.5-7.1-41v-.7c0-15.4,2.4-29.1,7.1-41,4.7-11.9,10.9-21.9,18.7-30.1,7.7-8.2,16.7-14.4,26.8-18.5,10.1-4.2,20.8-6.2,31.8-6.2s25.7,2.7,34.8,8.2c9.1,5.5,16.8,11.9,23,19.2v-91.1h52.6v255.5h-52.6Z"/>
  <path class="st2" d="M1652.6,190.3c-6.7-7.3-15.6-10.9-26.6-10.9s-20,3.6-26.8,10.7c-6.8,7.2-11.2,16.7-13.3,28.7h79.2c-1.6-11.8-5.8-21.3-12.5-28.5M1716.1,245.2c-.1,1.8-.3,4-.5,6.6h-129c2.5,12,7.8,21,15.7,27.2,8,6.1,17.8,9.2,29.6,9.2s16.6-1.5,23.5-4.5c6.9-3,14.1-7.8,21.4-14.5l30.1,26.6c-8.8,10.8-19.4,19.3-31.8,25.4-12.5,6.1-27.1,9.2-43.9,9.2s-26.7-2.3-38.6-6.9c-11.9-4.6-22.1-11.2-30.8-19.7-8.6-8.5-15.4-18.6-20.2-30.3-4.8-11.6-7.3-24.6-7.3-38.9v-.7c0-13.1,2.2-25.6,6.7-37.4,4.5-11.8,10.8-22,18.9-30.8,8.1-8.8,17.7-15.7,28.9-20.8,11.2-5.1,23.6-7.6,37.2-7.6s28.8,2.8,40.1,8.3c11.3,5.5,20.7,13,28.2,22.3,7.5,9.3,13,20.1,16.6,32.2,3.6,12.1,5.4,24.7,5.4,37.9v.7c0,2.5,0,4.7-.2,6.6"/>
  <path class="st2" d="M1887.8,320.7c-11.5,6.3-26.5,9.5-45,9.5s-26.7-2.5-38.6-7.6c-11.9-5.1-22.1-11.9-30.6-20.6-8.5-8.6-15.2-18.8-20.1-30.4-4.8-11.6-7.3-24-7.3-37.2v-.7c0-13.1,2.4-25.6,7.3-37.4,4.8-11.8,11.5-22,20.1-30.8,8.5-8.8,18.7-15.7,30.6-20.8,11.9-5.1,25-7.6,39.3-7.6s32.1,2.8,43.6,8.3c11.5,5.5,21.7,13.1,30.4,22.8l-32.2,34.6c-6-6.2-12.2-11.2-18.5-14.9-6.3-3.7-14.2-5.5-23.7-5.5s-12.7,1.3-18.2,4c-5.4,2.7-10.1,6.3-14.2,10.9-4,4.6-7.1,10-9.3,16.1-2.2,6.1-3.3,12.6-3.3,19.5v.7c0,7.2,1.1,13.8,3.3,20.1,2.2,6.2,5.4,11.6,9.5,16.3,4.2,4.6,9.1,8.2,14.9,10.9,5.8,2.7,12.2,4,19.4,4s16.4-1.8,23-5.4c6.6-3.6,13.1-8.4,19.5-14.4l30.8,31.1c-9,9.9-19.3,18-30.8,24.4"/>
  <path class="st2" d="M2073.4,329.1l-49.6-78.8-18.3,19.4v59.4h-52.6V73.5h52.6v134.6l61.6-67.5h63l-70.6,73,74.2,115.4h-60.2Z"/>
  <path class="st1" d="M403.3,205.1c0,39.2-31.8,70.9-70.9,70.9s-70.9-31.7-70.9-70.9,31.8-70.9,70.9-70.9,70.9,31.8,70.9,70.9Z"/>
  <path class="st0" d="M170.7,113.8c0,10.5-8.5,19.1-19.1,19.1s-19.1-8.5-19.1-19.1,8.5-19.1,19.1-19.1,19.1,8.5,19.1,19.1"/>
  <path class="st2" d="M556,30.7h-213.3v38.7h193.3c11,0,20,9,20,20v230.7c0,14-11.3,25.3-25.3,25.3H201.3v38.7h354.7c21.4,0,38.7-17.3,38.7-38.7V69.4c0-21.4-17.3-38.7-38.7-38.7"/>
  <path class="st2" d="M304,69.4H0L14.7,30.7h252l37.3,38.7Z"/>
  <path class="st2" d="M68,0h38.7v388h-38.7V0Z"/>
</svg>