<?xml version="1.0" encoding="UTF-8"?>
<svg version="1.1" viewBox="0 0 2133.7 388" xml:space="preserve" xmlns="http://www.w3.org/2000/svg"><defs><clipPath id="clipPath26"><path d="m0 2e3h2e3v-2e3h-2e3z"/></clipPath></defs><g transform="matrix(1.3333 0 0 -1.3333 -269.33 1526.7)"><g clip-path="url(#clipPath26)"><g transform="translate(776.12 897.85)"><path d="m0 0c-9.103 0-11.322 0.972-16.251 2.269-4.93 1.296-9.169 3.587-12.713 6.876-3.547 3.282-6.315 7.563-8.302 12.841-1.99 5.274-2.983 11.975-2.983 20.106v115.96h-51.692l14.479 33.727h37.213v35.543h39.435v-35.543h248.99l24.913-33.727h-273.91v-109.48c0-8.994 4.236-13.49 12.712-13.49 6.915 0 8.043 0.378 14.416 0.378l24.664-35.466" fill="#ec3207"/></g><g transform="translate(941.86 969.78)"><path d="m0 0c0 5.188-0.867 10.074-2.594 14.658-1.731 4.581-4.24 8.647-7.524 12.194-3.287 3.543-7.179 6.356-11.674 8.432-4.5 2.075-9.43 3.113-14.789 3.113-5.707 0-10.766-0.997-15.177-2.983-4.41-1.991-8.173-4.715-11.286-8.173-3.113-3.462-5.492-7.483-7.134-12.063-1.646-4.585-2.465-9.47-2.465-14.658v-0.52c0-5.188 0.864-10.077 2.595-14.658 1.726-4.585 4.236-8.651 7.524-12.194 3.283-3.546 7.134-6.355 11.545-8.431 4.41-2.075 9.38-3.113 14.917-3.113 5.708 0 10.767 0.993 15.177 2.983 4.411 1.986 8.173 4.711 11.285 8.173 3.114 3.457 5.49 7.478 7.136 12.063 1.641 4.58 2.464 9.47 2.464 14.658zm33.208-28.149c-3.806-8.735-9.08-16.389-15.825-22.959-6.746-6.577-14.703-11.765-23.869-15.568-9.169-3.802-19.199-5.707-30.095-5.707-10.726 0-20.669 1.861-29.836 5.577-9.168 3.718-17.081 8.822-23.738 15.308-6.66 6.486-11.893 14.095-15.696 22.831-3.806 8.73-5.708 18.115-5.708 28.148v0.519c0 10.029 1.902 19.413 5.708 28.149 3.803 8.732 9.08 16.386 15.826 22.961 6.746 6.571 14.699 11.76 23.868 15.566 9.165 3.803 19.199 5.707 30.095 5.707 10.723 0 20.666-1.86 29.835-5.577 9.166-3.722 17.08-8.821 23.74-15.307 6.655-6.486 11.889-14.099 15.695-22.831 3.803-8.735 5.708-18.12 5.708-28.148v-0.52c0-10.032-1.905-19.417-5.708-28.149" fill="#ec3207"/></g><g transform="translate(1115.9 970.3)"><path d="m0 0c0 5.748-0.908 11.014-2.724 15.801s-4.28 8.878-7.393 12.274c-3.113 3.398-6.706 6.008-10.768 7.837-4.065 1.828-8.431 2.744-13.101 2.744s-9.039-0.916-13.102-2.744c-4.065-1.829-7.612-4.439-10.637-7.837-3.028-3.396-5.449-7.487-7.264-12.274-1.816-4.787-2.725-10.053-2.725-15.801v-0.52c0-5.748 0.909-11.017 2.725-15.805 1.815-4.787 4.236-8.877 7.264-12.275 3.025-3.396 6.572-6.007 10.637-7.836 4.063-1.828 8.432-2.74 13.102-2.74s9.036 0.912 13.101 2.74c4.062 1.829 7.655 4.44 10.768 7.836 3.113 3.398 5.577 7.443 7.393 12.146 1.816 4.702 2.724 10.012 2.724 15.934zm34.116-31.263c-3.547-8.91-8.217-16.433-14.01-22.571-5.796-6.141-12.498-10.767-20.106-13.88-7.612-3.113-15.566-4.67-23.868-4.67-10.552 0-19.243 2.06-26.074 6.178-6.834 4.119-12.582 8.922-17.252 14.415v-59.509h-39.435v180.57h39.435v-19.803c4.84 6.518 10.677 11.882 17.511 16.09 6.831 4.203 15.437 6.307 25.815 6.307 8.128 0 15.996-1.557 23.609-4.67 7.609-3.113 14.354-7.742 20.236-13.88 5.877-6.141 10.592-13.665 14.139-22.571 3.543-8.91 5.319-19.158 5.319-30.743v-0.52c0-11.589-1.776-21.836-5.319-30.743" fill="#ec3207"/></g><g transform="translate(1285.3 970.3)"><path d="m0 0c0 5.748-0.908 11.014-2.724 15.801s-4.24 8.878-7.264 12.274c-3.029 3.398-6.575 6.008-10.637 7.837-4.066 1.828-8.432 2.744-13.102 2.744-4.669 0-9.04-0.916-13.101-2.744-4.067-1.829-7.654-4.439-10.768-7.837-3.113-3.396-5.577-7.442-7.393-12.144-1.817-4.702-2.724-10.013-2.724-15.931v-0.52c0-5.748 0.907-11.017 2.724-15.805 1.816-4.787 4.28-8.877 7.393-12.275 3.114-3.396 6.701-6.007 10.768-7.836 4.061-1.828 8.432-2.74 13.101-2.74 4.67 0 9.036 0.912 13.102 2.74 4.062 1.829 7.608 4.44 10.637 7.836 3.024 3.398 5.448 7.488 7.264 12.275 1.816 4.788 2.724 10.057 2.724 15.805zm-0.52-72.054v22.067c-4.843-6.523-10.68-11.886-17.511-16.089-6.834-4.204-15.436-6.308-25.814-6.308-8.132 0-16 1.557-23.609 4.67-7.612 3.113-14.359 7.739-20.236 13.88-5.882 6.138-10.597 13.661-14.139 22.571-3.548 8.907-5.319 19.154-5.319 30.743v0.52c0 11.585 1.771 21.833 5.319 30.743 3.542 8.906 8.212 16.43 14.009 22.571 5.793 6.138 12.494 10.767 20.107 13.88 7.609 3.113 15.566 4.67 23.868 4.67 10.547 0 19.24-2.059 26.074-6.178 6.83-4.119 12.583-8.926 17.251-14.415v68.33h39.436v-191.66z" fill="#4c4c4c"/></g><g transform="translate(1441.5 1002.3)"><path d="m0 0c-5.019 5.449-11.675 8.172-19.977 8.172s-15.006-2.683-20.107-8.042c-5.104-5.363-8.432-12.542-9.988-21.533h59.412c-1.213 8.82-4.326 15.955-9.34 21.403m47.606-41.121c-0.088-1.386-0.218-3.028-0.388-4.93h-96.771c1.902-8.995 5.838-15.784 11.805-20.365 5.967-4.584 13.361-6.875 22.182-6.875 6.571 0 12.452 1.123 17.641 3.373 5.189 2.245 10.548 5.878 16.085 10.896l22.571-19.976c-6.575-8.133-14.528-14.489-23.868-19.069s-20.325-6.875-32.949-6.875c-10.377 0-20.02 1.73-28.927 5.188-8.91 3.458-16.603 8.387-23.09 14.788-6.486 6.397-11.544 13.966-15.177 22.7-3.632 8.733-5.449 18.461-5.449 29.188v0.518c0 9.859 1.687 19.199 5.06 28.02 3.372 8.821 8.083 16.515 14.139 23.09 6.052 6.571 13.272 11.76 21.664 15.566 8.387 3.803 17.682 5.708 27.889 5.708 11.585 0 21.619-2.075 30.094-6.226 8.474-4.152 15.523-9.729 21.145-16.734 5.618-7.005 9.77-15.048 12.454-24.129 2.679-9.08 4.02-18.549 4.02-28.408v-0.518c0-1.906-0.044-3.547-0.13-4.93" fill="#4c4c4c"/></g><g transform="translate(1617.9 904.53)"><path d="m0 0c-8.651-4.755-19.892-7.134-33.728-7.134-10.377 0-20.021 1.905-28.927 5.707-8.909 3.803-16.564 8.951-22.96 15.438-6.402 6.485-11.415 14.094-15.048 22.83-3.632 8.731-5.448 18.03-5.448 27.889v0.519c0 9.858 1.816 19.198 5.448 28.02 3.633 8.82 8.646 16.515 15.048 23.09 6.396 6.571 14.051 11.76 22.96 15.566 8.906 3.803 18.72 5.707 29.446 5.707 13.143 0 24.039-2.075 32.689-6.226 8.648-4.151 16.256-9.859 22.832-17.123l-24.128-25.944c-4.5 4.67-9.125 8.387-13.88 11.156-4.76 2.765-10.682 4.151-17.773 4.151-5.017 0-9.557-0.997-13.62-2.983-4.065-1.991-7.612-4.715-10.637-8.173-3.028-3.462-5.362-7.483-7.004-12.063-1.647-4.585-2.465-9.47-2.465-14.658v-0.52c0-5.363 0.818-10.378 2.465-15.047 1.642-4.67 4.021-8.736 7.134-12.193 3.113-3.462 6.83-6.187 11.156-8.173 4.321-1.99 9.166-2.983 14.529-2.983 6.57 0 12.323 1.337 17.253 4.021 4.929 2.679 9.813 6.267 14.658 10.767l23.09-23.35c-6.745-7.438-14.444-13.535-23.09-18.291" fill="#4c4c4c"/></g><g transform="translate(1757.1 898.25)"><path d="m0 0-37.232 59.081-13.75-14.527v-44.554h-39.435v191.65h39.435v-100.92l46.179 50.591h47.218l-52.925-54.741 55.652-86.582z" fill="#4c4c4c"/></g><g transform="translate(504.45 991.23)"><path d="m0 0c0-29.377-23.814-53.19-53.191-53.19-29.376 0-53.191 23.813-53.191 53.19 0 29.376 23.815 53.191 53.191 53.191 29.377 0 53.191-23.815 53.191-53.191z" fill="none" stroke="#ec3207" stroke-miterlimit="10" stroke-width="30"/></g><g transform="translate(330.04 1059.7)"><path d="m0 0c0-7.9-6.405-14.305-14.305-14.305s-14.304 6.405-14.304 14.305 6.404 14.305 14.304 14.305 14.305-6.405 14.305-14.305" fill="#ec3207"/></g><g transform="translate(619,1122)"><path d="m0 0h-160v-29h145c8.284 0 15-6.716 15-15v-173c0-10.493-8.506-19-19-19h-247v-29h266c16.016 0 29 12.983 29 29v207c0 16.016-12.984 29-29 29" fill="#4c4c4c"/></g><g transform="translate(430,1093)"><path d="m0 0h-228l11 29h189z" fill="#4c4c4c"/></g><path d="m253 1145h29v-291h-29z" fill="#4c4c4c"/></g></g></svg>
