<?xml version="1.0" encoding="UTF-8"?>
<svg id="Layer_1" xmlns="http://www.w3.org/2000/svg" version="1.1" viewBox="0 0 720 480">
  <!-- Generator: Adobe Illustrator 29.6.1, SVG Export Plug-In . SVG Version: 2.1.1 Build 9)  -->
  <defs>
    <style>
      .st0 {
        fill: #4c4c4c;
      }
    </style>
  </defs>
  <path class="st0" d="M663.6,48.3h-250.4v45.4h226.9c13,0,23.5,10.5,23.5,23.5v270.7c0,16.4-13.3,29.7-29.7,29.7H247.3v45.4h416.2c25.1,0,45.4-20.3,45.4-45.4V93.7c0-25.1-20.3-45.4-45.4-45.4Z"/>
  <polygon class="st0" points="367.8 93.7 324 48.3 136.2 48.3 136.2 12.3 90.9 12.3 90.9 48.3 28.3 48.3 11.1 93.7 90.9 93.7 90.9 467.7 136.2 467.7 136.2 93.7 367.8 93.7"/>
</svg>