<?xml version="1.0" encoding="UTF-8"?>
<svg id="Layer_1" xmlns="http://www.w3.org/2000/svg" version="1.1" viewBox="0 0 720 469.4">
  <!-- Generator: Adobe Illustrator 29.6.1, SVG Export Plug-In . SVG Version: 2.1.1 Build 9)  -->
  <defs>
    <style>
      .st0 {
        fill: #0c0c0c;
      }
    </style>
  </defs>
  <path class="st0" d="M673.3,36.9h-258.4v46.8h234.1c13.4,0,24.2,10.8,24.2,24.2v279.3c0,16.9-13.7,30.6-30.6,30.6H243.7v46.8h429.4c25.9,0,46.8-20.9,46.8-46.8V83.8c0-25.9-20.9-46.8-46.8-46.8h.1Z"/>
  <polygon class="st0" points="368 83.8 322.9 36.9 129.1 36.9 129.1 -.2 82.3 -.2 82.3 36.9 17.7 36.9 0 83.8 82.3 83.8 82.3 469.7 129.1 469.7 129.1 83.8 368 83.8"/>
</svg>