<?xml version="1.0" encoding="UTF-8"?>
<svg id="Layer_1" xmlns="http://www.w3.org/2000/svg" version="1.1" viewBox="0 0 600 400">
  <!-- Generator: Adobe Illustrator 29.6.1, SVG Export Plug-In . SVG Version: 2.1.1 Build 9)  -->
  <defs>
    <style>
      .st0 {
        fill: none;
      }

      .st1 {
        fill: #ec3207;
      }

      .st2 {
        fill: #4c4c4c;
      }
    </style>
  </defs>
  <path class="st0" d="M335.2,262.3c28.1,0,50.9-22.8,50.9-50.9s-22.8-50.9-50.9-50.9-50.9,22.8-50.9,50.9,22.8,50.9,50.9,50.9Z"/>
  <path class="st1" d="M244.3,211.4c0,50.1,40.8,90.9,90.9,90.9s90.9-40.8,90.9-90.9-40.8-90.9-90.9-90.9-90.9,40.8-90.9,90.9ZM335.2,160.5c28.1,0,50.9,22.8,50.9,50.9s-22.8,50.9-50.9,50.9-50.9-22.8-50.9-50.9,22.8-50.9,50.9-50.9Z"/>
  <path class="st1" d="M154.5,101c-10.5,0-19.1,8.5-19.1,19.1s8.5,19.1,19.1,19.1,19.1-8.5,19.1-19.1-8.5-19.1-19.1-19.1Z"/>
  <path class="st2" d="M558.8,37h-213.3v38.7h193.3c11,0,20,9,20,20v230.7c0,14-11.3,25.3-25.3,25.3H204.2v38.7h354.7c21.4,0,38.7-17.3,38.7-38.7V75.7c0-21.4-17.3-38.7-38.7-38.7Z"/>
  <polygon class="st2" points="306.8 75.7 269.5 37 109.5 37 109.5 6.4 70.9 6.4 70.9 37 17.5 37 2.9 75.7 70.9 75.7 70.9 394.4 109.5 394.4 109.5 75.7 306.8 75.7"/>
</svg>